# xmcd
#
# Track frame offsets:
#	150
#	19171
#	35113
#	52452
#	67681
#	89209
#	106149
#	129364
#	146161
#	155599
#	173995
#	201957
#	218830
#
# Disc length: 3153 seconds
# Revision: 0
# Processed by: cddbd v1.5.2PL0 Copyright (c) Steve Scherf et al.
# Submitted via: dBpowerAMP V12.0
#
DISCID=c70c4f0d
DTITLE=Amplitude Valvulada - A Casa do Blues
DYEAR=2011
DGENRE=Blues/Rockabilly
TTITLE0=Vamos Deixar
TTITLE1=Ei Meu Amigo
TTITLE2=A Casa do Blues
TTITLE3=Beber Um Pouco Mais
TTITLE4=Longe da Solidão
TTITLE5=Sapatos de Camurça Azul
TTITLE6=Deixa Rolar
TTITLE7=Não é Bem Assim
TTITLE8=Pisando Fundo no Carango
TTITLE9=S.P. 74
TTITLE10=Conselho Jazzy
TTITLE11=Antes de Te Conhecer
TTITLE12=Não Me Falta Mais Nada
EXTD=
EXTT0=
EXTT1=
EXTT2=
EXTT3=
EXTT4=
EXTT5=
EXTT6=
EXTT7=
EXTT8=
EXTT9=
EXTT10=
EXTT11=
EXTT12=
PLAYORDER=
